<svg xmlns="http://www.w3.org/2000/svg" viewBox="84.3 0 70.8 109.3"><path d="M155.1,92.9V16.4c0-9.1-7.5-16.4-16.6-16.4H101c-9.2,0-16.7,7.4-16.7,16.4v76.5c0,9.1,7.5,16.4,16.7,16.4h37.5   C147.6,109.3,155.1,102,155.1,92.9L155.1,92.9z M152.4,90.9c0,8.6-6.9,15.6-15.4,15.6h-34.7c-8.5,0-15.4-7-15.4-15.6V18.2   c0-8.6,6.9-15.6,15.4-15.6H137c8.5,0,15.4,7,15.4,15.6V90.9L152.4,90.9z" fill="#c4b57c" /><path d=" M142.8,25.4   L142.8,25.4c-0.1,0.3-0.2,0.5-0.4,0.8l0,0l0.6,0.9l0,0l-17.2,37l-2-0.9l14.7-31.6l0,0l0.7-1.5l0,0c-0.5,0.4-1,0.7-1.5,1l0,0   c-2.4,1.3-5.2,1.6-7.8,0.9l0,0l-19.3,29.5l-1.8-1.2l19-29.1c-0.5-0.2-1-0.5-1.5-0.9c-0.5-0.3-0.9-0.7-1.3-1.1l0,0l-4.1,5.2   l-9.4,11.9l-1.7-1.3l9.4-11.9l4.4-5.6l0,0c-1.5-2.3-2.1-5.1-1.6-7.7c0.1-0.6,0.2-1.2,0.4-1.7l-1.2,1.2l-25.3,24l-1.5-1.6l29.6-28   l0,0l1.2,0.2c0.2-0.2,0.4-0.4,0.7-0.6l0,0c1.6-1.4,3.6-2.2,5.7-2.4c1.6-0.2,3.3,0,4.9,0.6c0.7,0.2,1.4,0.6,2,1   c0.2,0.1,0.4,0.3,0.6,0.4c0.2,0.1,0.4,0.3,0.6,0.5c0.6,0.5,1.1,1,1.6,1.6c1.1,1.3,1.8,2.9,2.1,4.5   C143.8,21.3,143.6,23.4,142.8,25.4L142.8,25.4z M118.4,68.6l0.2,24.5c-4.5-1.9-10.7,1-16.6,1l-4.1-25.9   C105.8,69.3,113.3,64.6,118.4,68.6L118.4,68.6z M120.9,68.6c5.1-4,12.6,0.7,20.5-0.4l-4.1,25.9c-5.9,0-12-2.9-16.6-1L120.9,68.6   L120.9,68.6z M145.8,71.3l-5,28.2l-18.7-1.2c-0.8,1.4-1.2,2.2-2.5,2.2s-1.7-0.8-2.5-2.2l-18.7,1.2l-5-28.2L96,70l4.5,25.9   c8.3,1.4,15.9-4.4,19,1.4c3.2-5.8,10.9,0,19.2-1.4l4.5-25.9L145.8,71.3L145.8,71.3z M131.6,15.1l1.2-2.2l0,0   c-1.1,0-2.2,0.2-3.1,0.6c-0.1,0-0.3,0.1-0.4,0.2c-0.3,0.1-0.5,0.2-0.8,0.4c-0.1,0.1-0.2,0.1-0.4,0.2c-0.1,0.1-0.2,0.2-0.3,0.2   c-0.1,0.1-0.2,0.2-0.3,0.3s-0.2,0.2-0.4,0.3s-0.3,0.3-0.5,0.4l0,0l-0.1,0.1c0,0,0,0.1-0.1,0.1c0,0,0,0-0.1,0.1l0,0   c-0.1,0.1-0.2,0.2-0.2,0.3l0,0c0,0,0,0.1-0.1,0.1c-0.1,0.1-0.1,0.1-0.2,0.2c0,0,0,0.1-0.1,0.1c-0.1,0.1-0.2,0.2-0.2,0.3   c-0.1,0.2-0.2,0.3-0.3,0.5c-0.1,0.1-0.1,0.2-0.2,0.3c-0.1,0.2-0.2,0.3-0.2,0.5c-0.1,0.1-0.1,0.3-0.2,0.4c-0.4,1-0.6,2-0.6,3.1v0.1   c0,0.2,0,0.3,0,0.5s0,0.4,0.1,0.5c0,0.1,0,0.1,0,0.2c0-4,3.1-7.4,7.1-7.7C131.5,15.1,131.6,15.1,131.6,15.1L131.6,15.1z" fill="#c4b57c" /></svg>